:SAMPLES-PER-SECOND 30
:FULLY-SPECIFIED
:DEGREES
1075
root  52.6368 39.0169 24.8984 176.663 4.05107 177.802
RightUpLeg  -8.8417 -23.3097 -5.34445
RightLeg  23.7872 3.34684 1.31362
RightFoot  -6.46863 -0.218472 4.15494
RightToes  -6.98493e-010 0 -3.6325e-017
Spine  11.9921 -0.794264 -5.85872
Spine1  4.58513 -3.0773 7.48416
HEad  -13.546 -27.0281 12.8625
LeftShoulder1  0.176878 2.93063 -24.6257
LeftArm  -10.5176 -0.553667 -36.2617
LeftForeArm  69.1855 -78.8922 -91.975
LeftHand  -0.112362 1.29069 3.09833
RightShoulder  -0.545466 -5.23697 24.6962
RightArm  -17.7805 -3.33148 35.2158
RightForeArm  103.175 74.9524 131.683
RightHand  -0.0197983 -1.53948 -0.342362
LeftUpLeg  -7.32826 -4.7912 -3.04088
LeftLeg  16.5769 -7.16029 -1.4801
LeftFoot  -5.59393 -0.165978 3.9698
LeftToes  7.91257e-010 -1.64976e-010 -3.02228e-011
1076
root  53.0661 38.7686 24.9645 175.85 5.8169 177.033
RightUpLeg  -12.7251 -22.6657 -6.4802
RightLeg  32.6518 6.93363 4.55533
RightFoot  -5.73188 -0.453013 8.25052
RightToes  -6.98493e-010 0 -3.6325e-017
Spine  12.5916 -0.490208 -8.5262
Spine1  4.81125 -2.97148 6.87245
HEad  -13.2087 -27.9663 13.9826
LeftShoulder1  0.20263 2.8217 -23.3459
LeftArm  -11.4245 -0.769914 -35.9035
LeftForeArm  67.3221 -78.8689 -90.802
LeftHand  -0.107987 0.163986 2.37747
RightShoulder  -0.571271 -5.29266 25.1809
RightArm  -17.1755 -2.68322 36.2306
RightForeArm  102.709 75.2936 130.317
RightHand  -0.00752333 -1.70361 0.0538799
LeftUpLeg  -7.57905 -2.17392 -2.68587
LeftLeg  18.8832 -7.97889 -2.34045
LeftFoot  -7.14489 -0.0604884 2.86825
LeftToes  7.91257e-010 -1.64976e-010 -3.02228e-011
1077
root  53.3948 38.5575 24.958 175.09 8.12032 176.574
RightUpLeg  -16.4821 -21.0492 -8.00665
RightLeg  41.1474 11.4276 10.3071
RightFoot  -2.89814 -1.0418 13.707
RightToes  -6.98493e-010 0 -3.6325e-017
Spine  12.4517 -0.241532 -9.57253
Spine1  5.37324 -2.62882 5.49616
HEad  -12.9871 -27.8536 13.8886
LeftShoulder1  0.175373 2.91287 -23.5611
LeftArm  -11.6796 -1.55977 -35.0132
LeftForeArm  65.9169 -78.8249 -90.489
LeftHand  -0.143065 0.37381 3.27538
RightShoulder  -0.573671 -5.30524 25.0478
RightArm  -16.6541 -1.92803 37.1813
RightForeArm  100.423 75.7332 128.095
RightHand  -0.0127222 -1.52951 -0.139254
LeftUpLeg  -7.58529 -0.604619 -2.33111
LeftLeg  20.9196 -7.331 -2.45445
LeftFoot  -8.656 -0.0102884 2.63153
LeftToes  7.91257e-010 -1.64976e-010 -3.02228e-011
1078
root  53.7231 38.3407 24.892 173.634 10.1251 175.819
RightUpLeg  -18.3209 -19.467 -10.9458
RightLeg  47.9524 15.9364 17.7644
RightFoot  -1.80253 -1.79917 21.2908
RightToes  -6.98493e-010 0 -3.6325e-017
Spine  13.1345 0.00942608 -11.3103
Spine1  5.31868 -2.68855 5.1607
HEad  -12.3746 -27.4287 13.1105
LeftShoulder1  0.0515407 3.33896 -24.741
LeftArm  -12 -1.81094 -34.0941
LeftForeArm  64.2932 -78.8161 -89.0477
LeftHand  -0.0876917 0.706916 2.11841
RightShoulder  -0.451685 -4.96175 24.1261
RightArm  -15.8172 -1.24429 37.7371
RightForeArm  96.6398 76.2845 124.777
RightHand  -0.0267628 -1.67154 -0.565837
LeftUpLeg  -6.60348 0.149689 -2.46787
LeftLeg  22.6123 -6.10296 -2.07927
LeftFoot  -10.2331 0.0420964 2.03904
LeftToes  7.91257e-010 -1.64976e-010 -3.02228e-011
1079
root  54.0793 38.2398 24.7718 172.589 11.4655 175.721
RightUpLeg  -19.2111 -18.7008 -12.7869
RightLeg  50.9541 17.5055 21.4132
RightFoot  -2.048 -1.88112 22.6935
RightToes  -6.98493e-010 0 -3.6325e-017
Spine  13.3035 0.0922866 -11.9789
Spine1  5.52903 -2.79589 5.12939
HEad  -11.4147 -27.5233 12.424
LeftShoulder1  0.0934287 3.20239 -24.6778
LeftArm  -11.7171 -1.47064 -34.8229
LeftForeArm  62.4524 -78.8066 -87.1385
LeftHand  -0.117946 0.978843 3.00577
RightShoulder  -0.489651 -5.09215 23.9874
RightArm  -15.4849 -0.397713 37.6654
RightForeArm  91.9413 76.9952 119.911
RightHand  -0.0136151 -1.29225 -0.181127
LeftUpLeg  -5.48474 0.904616 -1.7792
LeftLeg  23.4822 -5.74002 -2.07522
LeftFoot  -11.3044 0.0674769 1.58708
LeftToes  7.91257e-010 -1.64976e-010 -3.02228e-011
1080
root  54.5041 38.3081 24.6471 172.578 13.1171 176.473
RightUpLeg  -19.9212 -17.8795 -13.4043
RightLeg  49.5768 15.9527 18.8631
RightFoot  -3.12567 -1.61169 21.9011
RightToes  -6.98493e-010 0 -3.6325e-017
Spine  13.017 0.145652 -11.7068
Spine1  5.06324 -2.73702 5.44792
HEad  -10.3565 -27.6288 11.8271
LeftShoulder1  0.125341 3.10904 -25.5263
LeftArm  -10.9903 -1.48993 -34.6779
LeftForeArm  61.1795 -78.7948 -85.7529
LeftHand  -0.136352 1.28402 3.68161
RightShoulder  -0.469093 -5.0452 23.5731
RightArm  -15.4227 -0.556023 37.6582
RightForeArm  88.0634 77.4118 116.212
RightHand  -0.00878148 -1.51308 -0.0118879
LeftUpLeg  -4.55545 1.82135 -0.104192
LeftLeg  23.0384 -5.53182 -1.79361
LeftFoot  -11.6416 0.0725623 0.945148
LeftToes  7.91257e-010 -1.64976e-010 -3.02228e-011
1081
root  54.9436 38.4371 24.5064 172.514 14.624 177.136
RightUpLeg  -19.6863 -17.5677 -14.0955
RightLeg  44.9662 12.9518 13.2448
RightFoot  -2.91022 -1.41804 18.8098
RightToes  -6.98493e-010 0 -3.6325e-017
Spine  12.8762 -0.0679967 -11.2674
Spine1  4.88733 -2.88004 5.54382
HEad  -10.5262 -27.6124 12.3802
LeftShoulder1  0.148908 3.02579 -24.9404
LeftArm  -10.4582 -1.58148 -34.8181
LeftForeArm  60.2374 -78.7905 -84.2616
LeftHand  -0.0860621 1.57039 2.42048
RightShoulder  -0.469869 -5.04228 23.6831
RightArm  -15.4544 -0.141661 37.5205
RightForeArm  83.1973 77.8367 111.569
RightHand  -0.0195217 -1.29914 -0.367196
LeftUpLeg  -3.08717 3.45495 1.54949
LeftLeg  21.7518 -5.9204 -1.63327
LeftFoot  -11.575 0.0703301 0.327472
LeftToes  7.91257e-010 -1.64976e-010 -3.02228e-011
1082
root  55.3607 38.5665 24.3245 172.558 15.8059 177.372
RightUpLeg  -18.8453 -17.7308 -15.2944
RightLeg  38.5618 9.6271 7.935
RightFoot  -2.88539 -1.11642 14.7557
RightToes  -6.98493e-010 0 -3.6325e-017
Spine  12.257 -0.338202 -11.2151
Spine1  5.2386 -3.19369 6.19786
HEad  -10.4772 -27.9835 12.4216
LeftShoulder1  0.15499 2.98945 -23.8846
LeftArm  -9.95796 -2.30487 -36.1347
LeftForeArm  56.3517 -78.69 -80.4357
LeftHand  -0.0864881 1.1404 2.21351
RightShoulder  -0.459322 -5.01822 23.4532
RightArm  -15.6445 0.226578 37.2462
RightForeArm  78.5009 78.1195 107.365
RightHand  0.00458443 -1.00169 0.280644
LeftUpLeg  -1.49623 4.42867 2.58097
LeftLeg  19.908 -6.05187 -1.25858
LeftFoot  -11.3699 0.0681549 -0.446196
LeftToes  7.91257e-010 -1.64976e-010 -3.02228e-011
1083
root  55.8107 38.6465 24.1273 172.636 17.3278 177.426
RightUpLeg  -17.4706 -17.2218 -16.154
RightLeg  30.5812 6.24297 3.71217
RightFoot  -3.14624 -0.884628 12.0027
RightToes  -6.98493e-010 0 -3.6325e-017
Spine  12.0457 -0.634736 -10.8006
Spine1  4.85155 -3.39501 6.58239
HEad  -10.4134 -27.1612 12.1296
LeftShoulder1  0.11008 3.14983 -24.8052
LeftArm  -8.90004 -3.66667 -35.6506
LeftForeArm  52.9148 -78.555 -76.8007
LeftHand  -0.109216 0.998528 2.79982
RightShoulder  -0.407077 -4.8597 23.0841
RightArm  -15.5258 0.6066 37.1608
RightForeArm  72.9804 78.3636 102.362
RightHand  0.035362 -0.917418 1.03358
LeftUpLeg  -0.0190434 5.75867 3.7028
LeftLeg  18.357 -6.22339 -1.25478
LeftFoot  -11.4023 0.0677367 -1.19885
LeftToes  7.91257e-010 -1.64976e-010 -3.02228e-011
1084
root  56.3326 38.6095 23.8971 172.39 18.7241 176.964
RightUpLeg  -15.6916 -18.1101 -17.464
RightLeg  22.5876 4.28582 1.74574
RightFoot  -3.78547 -0.747545 10.904
RightToes  -6.98493e-010 0 -3.6325e-017
Spine  11.8227 -0.889275 -10.6964
Spine1  4.76266 -3.52435 6.33508
HEad  -10.2479 -27.4794 11.8202
LeftShoulder1  0.131066 3.07599 -24.3145
LeftArm  -8.41842 -4.98348 -36.7394
LeftForeArm  47.2908 -78.2426 -71.5691
LeftHand  -0.121189 1.4271 3.36292
RightShoulder  -0.376856 -4.77061 22.7675
RightArm  -15.9582 1.02936 37.0379
RightForeArm  67.6121 78.5526 96.8952
RightHand  0.0541566 -0.397451 1.30293
LeftUpLeg  1.30826 6.7435 4.34201
LeftLeg  17.7336 -6.06565 -1.26309
LeftFoot  -11.8465 0.0631748 -1.718
LeftToes  7.91257e-010 -1.64976e-010 -3.02228e-011
1085
root  56.9552 38.5565 23.6572 172.158 21.0269 176.309
RightUpLeg  -14.5962 -17.8549 -18.1808
RightLeg  15.6982 1.68571 0.384756
RightFoot  -4.19491 -0.66004 10.1354
RightToes  -6.98493e-010 0 -3.6325e-017
Spine  11.1839 -0.602623 -11.2159
Spine1  5.16503 -3.3324 7.02106
HEad  -10.5651 -27.1523 11.1978
LeftShoulder1  0.179124 2.92333 -24.5953
LeftArm  -8.02627 -7.02623 -37.5155
LeftForeArm  40.4154 -77.6421 -64.1418
LeftHand  -0.129485 0.954481 3.25477
RightShoulder  -0.36755 -4.75104 22.4681
RightArm  -16.1533 2.00675 36.8409
RightForeArm  61.8098 78.603 91.6409
RightHand  -0.0146979 -0.892512 -0.244328
LeftUpLeg  2.93363 7.82789 4.9802
LeftLeg  16.775 -5.19034 -1.03584
LeftFoot  -12.347 0.0521999 -2.63092
LeftToes  7.91257e-010 -1.64976e-010 -3.02228e-011
1086
root  57.678 38.3914 23.4025 171.783 22.5382 175.148
RightUpLeg  -13.2654 -17.1445 -19.5884
RightLeg  10.2206 -0.977049 -0.719304
RightFoot  -4.99312 -0.487686 7.87959
RightToes  -6.98493e-010 0 -3.6325e-017
Spine  10.7841 -0.866987 -11.8326
Spine1  5.1768 -3.52355 6.65952
HEad  -10.5601 -26.2587 10.8576
LeftShoulder1  0.155979 2.99028 -24.1047
LeftArm  -7.71451 -9.4266 -38.8839
LeftForeArm  32.4959 -76.6232 -55.9621
LeftHand  -0.0853234 1.23071 2.20179
RightShoulder  -0.32831 -4.62786 22.1355
RightArm  -16.6033 3.02482 37.059
RightForeArm  53.6671 78.538 83.378
RightHand  -0.0142938 -0.487988 -0.278972
LeftUpLeg  4.20989 7.91308 4.92567
LeftLeg  16.3479 -4.11513 -0.612505
LeftFoot  -13.16 0.0138193 -3.81245
LeftToes  7.91257e-010 -1.64976e-010 -3.02228e-011
1087
root  58.6907 37.946 23.0996 171.05 24.1247 173.539
RightUpLeg  -10.9237 -13.73 -21.4792
RightLeg  5.10851 -1.72166 -2.16068
RightFoot  -7.14754 -0.165144 3.41512
RightToes  -6.98493e-010 0 -3.6325e-017
Spine  10.2012 -0.934504 -13.754
Spine1  5.07378 -3.6881 6.11681
HEad  -10.8521 -24.8936 10.1674
LeftShoulder1  0.127306 3.08771 -24.3464
LeftArm  -7.19634 -12.2293 -39.9212
LeftForeArm  25.0871 -75.2554 -48.544
LeftHand  -0.165345 1.18361 4.4765
RightShoulder  -0.29338 -4.53165 21.3986
RightArm  -17.1541 4.06259 37.4601
RightForeArm  45.4623 78.2251 74.9183
RightHand  -0.0168647 -0.549268 -0.325458
LeftUpLeg  4.86368 8.26079 5.01834
LeftLeg  18.2988 -3.43981 -0.45656
LeftFoot  -15.4205 -0.0957698 -5.35672
LeftToes  7.91257e-010 -1.64976e-010 -3.02228e-011
1088
root  59.5414 37.7475 22.7684 170.412 25.0633 172.574
RightUpLeg  -10.0145 -14.5398 -22.0995
RightLeg  5.31866 -2.54074 -2.25739
RightFoot  -7.22004 -0.169369 3.34446
RightToes  -6.98493e-010 0 -3.6325e-017
Spine  10.3689 -1.44513 -14.1158
Spine1  4.89004 -4.35423 6.34073
HEad  -10.9814 -23.7356 9.76879
LeftShoulder1  0.211625 2.81188 -24.2565
LeftArm  -6.72911 -14.6087 -40.8349
LeftForeArm  19.4002 -73.6049 -41.9331
LeftHand  -0.155014 1.00736 4.02354
RightShoulder  -0.22931 -4.31894 20.7686
RightArm  -17.2022 5.2201 37.2823
RightForeArm  36.3973 77.6042 66.8354
RightHand  -0.0686928 -0.46068 -1.60372
LeftUpLeg  6.7523 8.89239 5.63991
LeftLeg  17.6828 -3.57124 -0.557439
LeftFoot  -16.061 -0.163931 -6.2842
LeftToes  7.91257e-010 -1.64976e-010 -3.02228e-011
1089
root  60.5155 37.5022 22.4064 169.977 26.6943 172.236
RightUpLeg  -9.13731 -14.1811 -21.8182
RightLeg  5.56745 -3.40305 -2.41304
RightFoot  -5.13776 -0.285659 5.25455
RightToes  -6.98493e-010 0 -3.6325e-017
Spine  10.1312 -1.51762 -14.2269
Spine1  5.27504 -4.78838 7.74304
HEad  -10.6593 -22.85 8.56669
LeftShoulder1  0.281111 2.60238 -24.9535
LeftArm  -6.04617 -17.7144 -41.8268
LeftForeArm  13.2831 -71.2911 -35.6822
LeftHand  -0.141058 1.34364 3.89828
RightShoulder  -0.173557 -4.14565 19.5027
RightArm  -17.6162 6.47664 37.0835
RightForeArm  29.4002 76.8556 59.9721
RightHand  -0.035993 0.21105 -0.764845
LeftUpLeg  8.78686 9.12275 6.83686
LeftLeg  17.3703 -2.80428 -0.163621
LeftFoot  -16.9306 -0.256699 -7.35843
LeftToes  7.91257e-010 -1.64976e-010 -3.02228e-011
